<?xml version="1.0" encoding="UTF-8"?>
<svg version="1.1" xmlns="http://www.w3.org/2000/svg" width="58" height="81">
<path d="M0 0 C0.92445923 -0.0157608 1.84891846 -0.03152161 2.8013916 -0.04776001 C3.78796753 -0.03763885 4.77454346 -0.0275177 5.79101562 -0.01708984 C7.32743713 -0.02426529 7.32743713 -0.02426529 8.89489746 -0.03158569 C11.05673766 -0.03498248 13.21862938 -0.02579563 15.38037109 -0.00488281 C18.68638822 0.02188459 21.98901015 -0.00463951 25.29492188 -0.03662109 C27.39779394 -0.03331696 29.5006639 -0.02691065 31.60351562 -0.01708984 C33.08337952 -0.03227158 33.08337952 -0.03227158 34.59313965 -0.04776001 C39.26413375 0.03187424 41.48597154 0.10677909 45.296875 3.00097656 C48.17580611 7.00943691 48.3288238 9.95000539 48.35839844 14.76733398 C48.36800598 16.02906937 48.37761353 17.29080475 48.38751221 18.59077454 C48.39236066 19.97018249 48.39663937 21.34959254 48.40039062 22.72900391 C48.40614512 24.14523825 48.41190281 25.56147259 48.41766357 26.97770691 C48.42816564 29.94762535 48.43401329 32.91751678 48.4375 35.88745117 C48.44297882 39.68376806 48.4669967 43.47972522 48.49547195 47.27592945 C48.51414361 50.2022555 48.51930636 53.12849575 48.52083588 56.05487633 C48.52385345 57.45385387 48.53185168 58.85283023 48.54502106 60.25174904 C48.56217208 62.21390245 48.55834346 64.17620483 48.55371094 66.13842773 C48.55917938 67.810299 48.55917938 67.810299 48.5647583 69.51594543 C48.13727986 73.15804967 47.11900335 75.53567206 45.19726562 78.64697266 C39.91086704 81.77473097 35.27397608 82.09158969 29.22851562 82.04541016 C28.38937622 82.04828033 27.55023682 82.05115051 26.68566895 82.05410767 C24.92081015 82.05613883 23.15592834 82.05067562 21.39111328 82.03808594 C18.70488678 82.02201824 16.02016463 82.03796647 13.33398438 82.05712891 C11.61132484 82.05514631 9.88866623 82.05130228 8.16601562 82.04541016 C7.37102661 82.05148285 6.5760376 82.05755554 5.75695801 82.06381226 C0.52337002 81.99849327 -3.17716497 81.15654305 -7.80273438 78.64697266 C-10.22226964 75.01766977 -10.0714808 73.2834283 -10.10913086 68.95996094 C-10.11745438 68.28480438 -10.12577789 67.60964783 -10.13435364 66.91403198 C-10.15845194 64.6817244 -10.16722542 62.44970903 -10.17382812 60.21728516 C-10.18279477 58.66413282 -10.19191662 57.11098137 -10.20118713 55.55783081 C-10.21767931 52.30122783 -10.22537761 49.04472769 -10.22827148 45.78808594 C-10.23365496 41.6192407 -10.27133115 37.45136463 -10.31701565 33.28279305 C-10.3467895 30.07425425 -10.3539951 26.86594871 -10.35499763 23.65728378 C-10.35919953 22.12069129 -10.37163283 20.58409809 -10.39251518 19.04764175 C-10.41943886 16.89529873 -10.41460425 14.74520007 -10.40209961 12.59277344 C-10.40717026 11.36938263 -10.41224091 10.14599182 -10.41746521 8.88552856 C-9.33019537 3.15751889 -5.82526747 0.02865195 0 0 Z M-3.82495117 6.31030273 C-7.0610621 11.76986675 -6.45355798 17.33450228 -6.36132812 23.55712891 C-6.3570743 24.93045096 -6.35474903 26.30378021 -6.35426331 27.67710876 C-6.34810919 30.54963977 -6.32546504 33.42138752 -6.28979492 36.29370117 C-6.24448016 39.97132529 -6.22976599 43.64824188 -6.22605801 47.32611942 C-6.22162481 50.15977421 -6.20631364 52.9932813 -6.18718147 55.82687187 C-6.17401561 57.84094768 -6.16576108 59.85505366 -6.15757751 61.86915588 C-6.14159012 63.09400192 -6.12560272 64.31884796 -6.10913086 65.58081055 C-6.09849106 66.65827042 -6.08785126 67.73573029 -6.07688904 68.84584045 C-5.80266578 71.64767349 -5.33948218 73.30768002 -3.80273438 75.64697266 C-0.40092689 77.3478764 3.47639122 76.85360582 7.22070312 76.88525391 C8.11842438 76.89332565 9.01614563 76.9013974 9.94107056 76.90971375 C11.84252998 76.92355557 13.74401426 76.93427728 15.64550781 76.94213867 C18.55386346 76.95936367 21.46108595 77.00324957 24.36914062 77.04736328 C26.21548642 77.05748911 28.06184189 77.06600556 29.90820312 77.07275391 C30.77810883 77.09026199 31.64801453 77.10777008 32.54428101 77.12580872 C33.35837433 77.12288315 34.17246765 77.11995758 35.01123047 77.11694336 C35.72467621 77.1228096 36.43812195 77.12867584 37.17318726 77.13471985 C40.19569203 76.40637936 41.34965868 75.11557038 43.19726562 72.64697266 C43.78828417 69.68813211 43.78828417 69.68813211 43.68310547 66.36547852 C43.68925873 65.09413559 43.69541199 63.82279266 43.70175171 62.51292419 C43.68795634 61.12921422 43.67342241 59.74551145 43.65820312 58.36181641 C43.6558178 56.93982612 43.65491357 55.51783265 43.65542603 54.09584045 C43.65230113 51.11911218 43.63575917 48.14286662 43.60888672 45.16625977 C43.574876 41.35064453 43.56725918 37.53555861 43.56877708 33.71980953 C43.56823332 30.78498786 43.55726572 27.85028191 43.5427742 24.91549873 C43.53641057 23.50848834 43.53246832 22.10146485 43.53098679 20.69444084 C43.52665112 18.72927002 43.50756428 16.76414841 43.48779297 14.79907227 C43.48016937 13.68084579 43.47254578 12.56261932 43.46469116 11.4105072 C43.39606715 8.43386493 43.39606715 8.43386493 41.19726562 5.64697266 C35.09039486 3.61134907 27.99363398 4.33927635 21.58300781 4.296875 C19.74596498 4.28030457 17.9089869 4.25300007 16.07226562 4.21484375 C13.41828104 4.16002905 10.76580276 4.13819729 8.11132812 4.12353516 C7.29346832 4.10086578 6.47560852 4.07819641 5.63296509 4.05484009 C1.79440402 4.06903413 -0.41336882 4.43267849 -3.82495117 6.31030273 Z " fill="#0080FB" transform="translate(9.802734375,-0.64697265625)"/>
<path d="M0 0 C1.32 0 2.64 0 4 0 C4 1.32 4 2.64 4 4 C2.35 3.67 0.7 3.34 -1 3 C-0.67 2.01 -0.34 1.02 0 0 Z " fill="#0080FC" transform="translate(27,61)"/>
</svg>
