<svg id="Icon_material-thumb-up" data-name="Icon material-thumb-up" xmlns="http://www.w3.org/2000/svg" width="30" height="27.273" viewBox="0 0 30 27.273">
  <path id="Icon_material-thumb-up-2" data-name="Icon material-thumb-up" d="M1.5,28.773H6.955V12.409H1.5Zm30-15a2.735,2.735,0,0,0-2.727-2.727h-8.6l1.3-6.232.041-.436a2.053,2.053,0,0,0-.6-1.445L19.459,1.5l-8.973,8.986a2.666,2.666,0,0,0-.8,1.923V26.045a2.735,2.735,0,0,0,2.727,2.727H24.682a2.709,2.709,0,0,0,2.509-1.664L31.309,17.5a2.694,2.694,0,0,0,.191-1V13.773Z" transform="translate(-1.5 -1.5)" fill="#0081fc"/>
</svg>
