<svg xmlns="http://www.w3.org/2000/svg" width="29.43" height="24.477" viewBox="0 0 29.43 24.477">
  <g id="Icon_feather-users" data-name="Icon feather-users" transform="translate(-0.5 -3.465)">
    <path id="Path_15439" data-name="Path 15439" d="M23.9,30.9V28.1a5.6,5.6,0,0,0-5.6-5.6H7.1a5.6,5.6,0,0,0-5.6,5.6v2.8" transform="translate(0 -3.958)" fill="none" stroke="#000" stroke-linecap="round" stroke-linejoin="round" stroke-width="2"/>
    <path id="Path_15440" data-name="Path 15440" d="M18.7,10.1a5.6,5.6,0,1,1-5.6-5.6,5.6,5.6,0,0,1,5.6,5.6Z" transform="translate(-1.363)" fill="none" stroke="#000" stroke-linecap="round" stroke-linejoin="round" stroke-width="2"/>
    <path id="Path_15441" data-name="Path 15441" d="M34.2,30.913v-2.8A5.6,5.6,0,0,0,30,22.7" transform="translate(-5.271 -3.971)" fill="none" stroke="#000" stroke-linecap="round" stroke-linejoin="round" stroke-width="2"/>
    <path id="Path_15442" data-name="Path 15442" d="M24,4.7a5.6,5.6,0,0,1,0,10.851" transform="translate(-4.162 -0.013)" fill="none" stroke="#000" stroke-linecap="round" stroke-linejoin="round" stroke-width="2"/>
  </g>
</svg>
