<svg xmlns="http://www.w3.org/2000/svg" width="16" height="16" viewBox="0 0 18.824 18.824">
  <path id="Icon_awesome-linkedin" data-name="Icon awesome-linkedin" d="M17.48,2.25H1.34A1.35,1.35,0,0,0,0,3.607v16.11a1.35,1.35,0,0,0,1.34,1.357H17.48a1.354,1.354,0,0,0,1.345-1.357V3.607A1.354,1.354,0,0,0,17.48,2.25ZM5.689,18.385H2.9V9.4H5.693v8.984Zm-1.4-10.21A1.618,1.618,0,1,1,5.912,6.557,1.618,1.618,0,0,1,4.294,8.175Zm11.853,10.21h-2.79v-4.37c0-1.042-.021-2.382-1.45-2.382-1.454,0-1.677,1.134-1.677,2.307v4.446H7.441V9.4h2.677v1.227h.038A2.939,2.939,0,0,1,12.8,9.179c2.824,0,3.349,1.861,3.349,4.282Z" transform="translate(0 -2.25)" fill="#fff"/>
</svg>
