<svg xmlns="http://www.w3.org/2000/svg" width="18" height="18" viewBox="0 0 21 21">
  <path id="Icon_material-my-location" data-name="Icon material-my-location" d="M12,8.182A3.818,3.818,0,1,0,15.818,12,3.817,3.817,0,0,0,12,8.182Zm8.534,2.864a8.585,8.585,0,0,0-7.579-7.579V1.5H11.045V3.466a8.585,8.585,0,0,0-7.579,7.579H1.5v1.909H3.466a8.585,8.585,0,0,0,7.579,7.579V22.5h1.909V20.534a8.585,8.585,0,0,0,7.579-7.579H22.5V11.045ZM12,18.682A6.682,6.682,0,1,1,18.682,12,6.677,6.677,0,0,1,12,18.682Z" transform="translate(-1.5 -1.5)" fill="#0180fc"/>
</svg>
