<svg id="OFFICE_BUILDING" data-name="OFFICE BUILDING" xmlns="http://www.w3.org/2000/svg" width="14.961" height="14.961" viewBox="0 0 14.961 14.961">
  <path id="Path_86" data-name="Path 86" d="M37.672,35.744a.312.312,0,0,0,.312-.312V33.691a.312.312,0,0,0-.312-.312H35.931a.312.312,0,0,0-.312.312v1.741a.312.312,0,0,0,.312.312ZM36.244,34H37.36V35.12H36.244Z" transform="translate(-32.736 -30.847)" fill="#313131"/>
  <path id="Path_87" data-name="Path 87" d="M56.952,35.744a.312.312,0,0,0,.312-.312V33.691a.312.312,0,0,0-.312-.312h-1.74a.312.312,0,0,0-.312.312v1.741a.312.312,0,0,0,.312.312ZM55.525,34h1.116V35.12H55.525Z" transform="translate(-48.99 -30.847)" fill="#313131"/>
  <path id="Path_88" data-name="Path 88" d="M37.672,53.676a.312.312,0,0,0,.312-.312v-1.74a.312.312,0,0,0-.312-.312H35.931a.312.312,0,0,0-.312.312v1.74a.312.312,0,0,0,.312.312Zm-1.428-1.74H37.36v1.116H36.244Z" transform="translate(-32.736 -45.965)" fill="#313131"/>
  <path id="Path_89" data-name="Path 89" d="M56.952,53.676a.312.312,0,0,0,.312-.312v-1.74a.312.312,0,0,0-.312-.312h-1.74a.312.312,0,0,0-.312.312v1.74a.312.312,0,0,0,.312.312Zm-1.428-1.74h1.116v1.116H55.525Z" transform="translate(-48.99 -45.965)" fill="#313131"/>
  <path id="Path_90" data-name="Path 90" d="M37.672,71.607a.312.312,0,0,0,.312-.312V69.554a.312.312,0,0,0-.312-.312H35.931a.312.312,0,0,0-.312.312v1.741a.312.312,0,0,0,.312.312Zm-1.428-1.741H37.36v1.116H36.244Z" transform="translate(-32.736 -61.081)" fill="#313131"/>
  <path id="Path_91" data-name="Path 91" d="M56.952,71.607a.312.312,0,0,0,.312-.312V69.554a.312.312,0,0,0-.312-.312h-1.74a.312.312,0,0,0-.312.312v1.741a.312.312,0,0,0,.312.312Zm-1.428-1.741h1.116v1.116H55.525Z" transform="translate(-48.99 -61.081)" fill="#313131"/>
  <path id="Path_92" data-name="Path 92" d="M83.945,61.775a.312.312,0,0,0,.312-.312V60.179a.312.312,0,0,0-.312-.312H82.662a.312.312,0,0,0-.312.312v1.283a.312.312,0,0,0,.312.312Zm-.971-1.283h.658v.658h-.658Z" transform="translate(-72.088 -53.149)" fill="#313131"/>
  <path id="Path_93" data-name="Path 93" d="M83.945,76.858a.312.312,0,0,0,.312-.312V75.262a.312.312,0,0,0-.312-.312H82.662a.312.312,0,0,0-.312.312v1.283a.312.312,0,0,0,.312.312Zm-.971-1.283h.658v.658h-.658Z" transform="translate(-72.088 -65.855)" fill="#313131"/>
  <path id="Path_94" data-name="Path 94" d="M83.945,91.948a.312.312,0,0,0,.312-.312V90.352a.312.312,0,0,0-.312-.312H82.662a.312.312,0,0,0-.312.312v1.283a.312.312,0,0,0,.312.312Zm-.971-1.283h.658v.658h-.658Z" transform="translate(-72.088 -78.775)" fill="#313131"/>
  <path id="Path_95" data-name="Path 95" d="M17.53,31.651a.28.28,0,1,0,0,.56h14.4a.28.28,0,1,0,0-.56H30.591V22.816a.28.28,0,0,0-.213-.272l-3.364-.828V19.032h.249a.28.28,0,0,0,.28-.28V17.53a.28.28,0,0,0-.28-.28h-8.94a.28.28,0,0,0-.28.28v1.222a.28.28,0,0,0,.28.28h.249V31.651Zm4.982,0h-1.4V29.073h1.4Zm1.957,0h-1.4V29.073h1.4Zm1.984-9.716v9.716H25.029V28.793a.28.28,0,0,0-.28-.28H20.836a.28.28,0,0,0-.28.28v2.859H19.132V19.032h7.322Zm.56.357,3.017.743v8.616H27.013ZM18.6,17.81h8.38v.662H18.6Z" transform="translate(-17.25 -17.25)" fill="#313131"/>
</svg>
