<svg xmlns="http://www.w3.org/2000/svg" width="26" height="26" viewBox="0 0 26 26">
  <path id="WALL" d="M30.25,17.25H17.737a.487.487,0,0,0-.487.487V42.763a.487.487,0,0,0,.487.487H42.763a.487.487,0,0,0,.487-.487V37.758a.487.487,0,0,0-.487-.487h-5.77V33.239h5.77a.487.487,0,0,0,.487-.487V27.747a.487.487,0,0,0-.487-.487h-5.77V22.742a.487.487,0,0,0-.487-.487h-5.77V17.737A.487.487,0,0,0,30.25,17.25Zm-.487.973v4.032H26.947a8.472,8.472,0,0,0-1.129-4.032Zm5.273,24.053H18.223V18.223h6.448a7.546,7.546,0,0,1,1.3,4.5v0c0,.071-.008.141-.013.212-.026.352-.075.707-.127,1.082a6.287,6.287,0,0,0,.139,3.341,3.573,3.573,0,0,0,.357.658v0h0a8.264,8.264,0,0,0,2.316,2.037A14.082,14.082,0,0,1,29.926,31h0a2.872,2.872,0,0,1,1.057,1.6,1.922,1.922,0,0,1,.031.2s0,0,0,.006a.016.016,0,0,1,0,0,5.792,5.792,0,0,1-.051,1.288,4.927,4.927,0,0,0,.061,2.035,4.164,4.164,0,0,0,1.6,2.012c.16.122.323.241.487.361a5.017,5.017,0,0,1,1.679,1.653,4.077,4.077,0,0,1,.244,2.121ZM27.815,28.234h1.948V29.65c-.19-.134-.381-.265-.571-.394A13.638,13.638,0,0,1,27.815,28.234ZM31.937,34.2c.035-.316.071-.638.076-.965H36.02v4.032H33.094a3.059,3.059,0,0,1-1.133-1.424A4.149,4.149,0,0,1,31.937,34.2Zm10.34,4.04v4.032H36.014a4.916,4.916,0,0,0-.341-2.547,4.435,4.435,0,0,0-1.279-1.485Zm0-10.011v4.032H31.909a3.765,3.765,0,0,0-1.173-1.844V28.234ZM36.02,23.229v4.032H27a2.5,2.5,0,0,1-.132-.272,5.489,5.489,0,0,1-.076-2.836c.042-.3.083-.612.115-.923H36.02Z" transform="translate(-17.25 -17.25)"/>
</svg>
