<svg xmlns="http://www.w3.org/2000/svg" width="17" height="14.093" viewBox="0 0 17 14.093">
  <g id="Icon_feather-users" data-name="Icon feather-users" transform="translate(0.5 0.502)">
    <path id="Path_15439" data-name="Path 15439" d="M14.567,27.4V25.767A3.267,3.267,0,0,0,11.3,22.5H4.767A3.267,3.267,0,0,0,1.5,25.767V27.4" transform="translate(-1.5 -14.309)" fill="none" stroke="#000" stroke-linecap="round" stroke-linejoin="round" stroke-width="1"/>
    <path id="Path_15440" data-name="Path 15440" d="M14.033,7.767A3.267,3.267,0,1,1,10.767,4.5a3.267,3.267,0,0,1,3.267,3.267Z" transform="translate(-4.795 -4.5)" fill="none" stroke="#000" stroke-linecap="round" stroke-linejoin="round" stroke-width="1"/>
    <path id="Path_15441" data-name="Path 15441" d="M32.45,27.489V25.856A3.267,3.267,0,0,0,30,22.7" transform="translate(-16.45 -14.398)" fill="none" stroke="#000" stroke-linecap="round" stroke-linejoin="round" stroke-width="1"/>
    <path id="Path_15442" data-name="Path 15442" d="M24,4.7a3.267,3.267,0,0,1,0,6.329" transform="translate(-13.303 -4.589)" fill="none" stroke="#000" stroke-linecap="round" stroke-linejoin="round" stroke-width="1"/>
  </g>
</svg>
