<svg xmlns="http://www.w3.org/2000/svg" xmlns:xlink="http://www.w3.org/1999/xlink" width="23.258" height="19" viewBox="0 0 23.258 19">
  <defs>
    <clipPath id="clip-path">
      <rect id="Rectangle_8858" data-name="Rectangle 8858" width="23.258" height="19" fill="#151515"/>
    </clipPath>
  </defs>
  <g id="Group_23296" data-name="Group 23296" transform="translate(0 0)">
    <g id="Group_23295" data-name="Group 23295" transform="translate(0 0)" clip-path="url(#clip-path)">
      <path id="Path_15977" data-name="Path 15977" d="M26.689,4.531H25.665a.872.872,0,0,0-.872.871V6.427a.872.872,0,0,0,.872.871h1.024a.872.872,0,0,0,.872-.871V5.4a.872.872,0,0,0-.872-.871m-1.1.871a.081.081,0,0,1,.08-.081h1.024a.081.081,0,0,1,.08.081V6.427a.081.081,0,0,1-.08.08H25.665a.08.08,0,0,1-.08-.08Z" transform="translate(-16.682 -3.049)" fill="#151515"/>
      <path id="Path_15978" data-name="Path 15978" d="M39.032,7.3h1.024a.872.872,0,0,0,.871-.871V5.4a.872.872,0,0,0-.871-.871H39.032a.872.872,0,0,0-.872.871V6.427a.872.872,0,0,0,.872.871m1.1-.871a.08.08,0,0,1-.08.08H39.032a.08.08,0,0,1-.08-.08V5.4a.081.081,0,0,1,.08-.081h1.024a.081.081,0,0,1,.08.081Z" transform="translate(-25.676 -3.049)" fill="#151515"/>
      <path id="Path_15979" data-name="Path 15979" d="M7.162,16.577h17.4a.872.872,0,0,0,.872-.871V5.718a.872.872,0,0,0-.872-.871H20.94a.839.839,0,0,0-.1,0V.871A.872.872,0,0,0,19.974,0H11.748a.872.872,0,0,0-.872.871V3.614a.83.83,0,0,0-.095-.005H7.162a.872.872,0,0,0-.872.871V15.705a.872.872,0,0,0,.872.871m7.52-4.053a.081.081,0,0,1,.08-.081h2.2a.081.081,0,0,1,.08.081v3.182a.08.08,0,0,1-.08.08h-2.2a.08.08,0,0,1-.08-.08Zm2.28-.871h-2.2a.872.872,0,0,0-.871.871v3.182q0,.04,0,.08H11.668V.871a.081.081,0,0,1,.08-.08h8.225a.081.081,0,0,1,.08.08V15.786H17.829c0-.027,0-.054,0-.08V12.523a.872.872,0,0,0-.871-.871m7.681,4.053a.081.081,0,0,1-.08.08h-3.7V5.718a.08.08,0,0,1,.08-.08h3.621a.081.081,0,0,1,.08.08Zm-13.779.08h-3.7a.08.08,0,0,1-.08-.08V4.48a.081.081,0,0,1,.08-.081h3.621a.081.081,0,0,1,.08.081Z" transform="translate(-4.232 0)" fill="#151515"/>
      <path id="Path_15980" data-name="Path 15980" d="M54.258,18.841H53.234a.872.872,0,0,0-.872.871v1.025a.872.872,0,0,0,.872.871h1.024a.872.872,0,0,0,.872-.871V19.712a.872.872,0,0,0-.872-.871m-1.1.871a.08.08,0,0,1,.08-.08h1.024a.081.081,0,0,1,.08.08v1.025a.081.081,0,0,1-.08.08H53.234a.08.08,0,0,1-.08-.08Z" transform="translate(-35.232 -12.677)" fill="#151515"/>
      <path id="Path_15981" data-name="Path 15981" d="M54.258,29.916H53.234a.872.872,0,0,0-.872.871v1.024a.872.872,0,0,0,.872.871h1.024a.872.872,0,0,0,.872-.871V30.787a.872.872,0,0,0-.872-.871m-1.1.871a.081.081,0,0,1,.08-.081h1.024a.081.081,0,0,1,.08.081v1.024a.081.081,0,0,1-.08.08H53.234a.08.08,0,0,1-.08-.08Z" transform="translate(-35.232 -20.129)" fill="#151515"/>
      <path id="Path_15982" data-name="Path 15982" d="M12.334,18.841H11.31a.872.872,0,0,0-.872.871v1.025a.872.872,0,0,0,.872.871h1.024a.872.872,0,0,0,.872-.871V19.712a.872.872,0,0,0-.872-.871m-1.1.871a.08.08,0,0,1,.08-.08h1.024a.081.081,0,0,1,.08.08v1.025a.081.081,0,0,1-.08.08H11.31a.08.08,0,0,1-.08-.08Z" transform="translate(-7.023 -12.677)" fill="#151515"/>
      <path id="Path_15983" data-name="Path 15983" d="M26.689,15.1H25.665a.872.872,0,0,0-.872.871V17a.872.872,0,0,0,.872.871h1.024A.872.872,0,0,0,27.56,17V15.973a.872.872,0,0,0-.872-.871m-1.1.871a.08.08,0,0,1,.08-.08h1.024a.081.081,0,0,1,.08.08V17a.081.081,0,0,1-.08.08H25.665a.08.08,0,0,1-.08-.08Z" transform="translate(-16.682 -10.161)" fill="#151515"/>
      <path id="Path_15984" data-name="Path 15984" d="M26.689,25.745H25.665a.872.872,0,0,0-.872.871v1.024a.872.872,0,0,0,.872.871h1.024a.872.872,0,0,0,.872-.871V26.616a.872.872,0,0,0-.872-.871m-1.1.871a.081.081,0,0,1,.08-.081h1.024a.081.081,0,0,1,.08.081v1.024a.081.081,0,0,1-.08.08H25.665a.08.08,0,0,1-.08-.08Z" transform="translate(-16.682 -17.323)" fill="#151515"/>
      <path id="Path_15985" data-name="Path 15985" d="M39.032,17.868h1.024A.872.872,0,0,0,40.927,17V15.972a.872.872,0,0,0-.871-.871H39.032a.872.872,0,0,0-.872.871V17a.872.872,0,0,0,.872.871m1.1-.871a.08.08,0,0,1-.08.08H39.032a.08.08,0,0,1-.08-.08V15.972a.08.08,0,0,1,.08-.08h1.024a.08.08,0,0,1,.08.08Z" transform="translate(-25.676 -10.161)" fill="#151515"/>
      <path id="Path_15986" data-name="Path 15986" d="M40.928,27.641V26.616a.872.872,0,0,0-.872-.871H39.032a.872.872,0,0,0-.871.871v1.024a.872.872,0,0,0,.871.871h1.024a.872.872,0,0,0,.872-.871m-1.976-1.024a.081.081,0,0,1,.08-.081h1.024a.081.081,0,0,1,.08.081v1.024a.08.08,0,0,1-.08.08H39.032a.08.08,0,0,1-.08-.08Z" transform="translate(-25.677 -17.323)" fill="#151515"/>
      <path id="Path_15987" data-name="Path 15987" d="M12.334,29.916H11.31a.872.872,0,0,0-.872.871v1.024a.872.872,0,0,0,.872.871h1.024a.872.872,0,0,0,.872-.871V30.787a.872.872,0,0,0-.872-.871m-1.1.871a.081.081,0,0,1,.08-.081h1.024a.081.081,0,0,1,.08.081v1.024a.081.081,0,0,1-.08.08H11.31a.08.08,0,0,1-.08-.08Z" transform="translate(-7.023 -20.129)" fill="#151515"/>
      <path id="Path_15988" data-name="Path 15988" d="M4.567,52.855H24.3a.4.4,0,1,0,0-.791H4.567a.4.4,0,1,0,0,.791" transform="translate(-2.806 -35.031)" fill="#151515"/>
      <path id="Path_15989" data-name="Path 15989" d="M22.863,55.66H.4a.4.4,0,1,0,0,.791H22.863a.4.4,0,1,0,0-.791" transform="translate(0 -37.451)" fill="#151515"/>
    </g>
  </g>
</svg>
