<svg xmlns="http://www.w3.org/2000/svg" width="12.765" height="20.424" viewBox="0 0 12.765 20.424">
  <path id="Icon_metro-location" data-name="Icon metro-location" d="M14.737,1.928A6.383,6.383,0,0,0,8.355,8.311c0,6.383,6.383,14.042,6.383,14.042S21.12,14.693,21.12,8.311a6.383,6.383,0,0,0-6.383-6.383Zm0,10.292a3.909,3.909,0,1,1,3.909-3.909A3.909,3.909,0,0,1,14.737,12.22ZM12.264,8.311a2.473,2.473,0,1,1,2.473,2.473A2.473,2.473,0,0,1,12.264,8.311Z" transform="translate(-8.355 -1.928)" fill="#7d66fc"/>
</svg>
