<svg xmlns="http://www.w3.org/2000/svg" width="22.5" height="22.5" viewBox="0 0 22.5 22.5">
  <path id="WALL" d="M28.25,17.25H17.662a.412.412,0,0,0-.412.412V38.838a.412.412,0,0,0,.412.412H38.838a.412.412,0,0,0,.412-.412V34.6a.412.412,0,0,0-.412-.412H33.956V30.779h4.882a.412.412,0,0,0,.412-.412V26.132a.412.412,0,0,0-.412-.412H33.956V21.9a.412.412,0,0,0-.412-.412H28.662V17.662A.412.412,0,0,0,28.25,17.25Zm-.412.824v3.412H25.455a7.169,7.169,0,0,0-.955-3.412ZM32.3,38.426H18.074V18.074h5.456a6.385,6.385,0,0,1,1.1,3.805v0c0,.06-.007.119-.011.179-.022.3-.064.6-.108.916a5.32,5.32,0,0,0,.118,2.827,3.023,3.023,0,0,0,.3.557v0h0a6.992,6.992,0,0,0,1.96,1.724,11.916,11.916,0,0,1,1.087.8h0a2.43,2.43,0,0,1,.894,1.351,1.627,1.627,0,0,1,.026.167s0,0,0,0a.013.013,0,0,1,0,0,4.9,4.9,0,0,1-.043,1.09,4.169,4.169,0,0,0,.052,1.722,3.523,3.523,0,0,0,1.355,1.7c.135.1.273.2.412.306a4.245,4.245,0,0,1,1.421,1.4,3.449,3.449,0,0,1,.207,1.795ZM26.19,26.544h1.648v1.2c-.16-.114-.323-.224-.483-.333A11.54,11.54,0,0,1,26.19,26.544ZM29.677,31.6c.03-.267.06-.54.064-.817h3.391v3.412H30.657a2.588,2.588,0,0,1-.959-1.205A3.511,3.511,0,0,1,29.677,31.6Zm8.749,3.418v3.412h-5.3a4.159,4.159,0,0,0-.288-2.155,3.753,3.753,0,0,0-1.083-1.256Zm0-8.471v3.412H29.654a3.186,3.186,0,0,0-.992-1.56V26.544Zm-5.294-4.235v3.412H25.5a2.113,2.113,0,0,1-.112-.23,4.644,4.644,0,0,1-.064-2.4c.036-.256.071-.518.1-.781h7.711Z" transform="translate(-17 -17)" stroke="#000" stroke-width="0.5"/>
</svg>
