<svg xmlns="http://www.w3.org/2000/svg" width="16" height="15.996" viewBox="0 0 16 15.996">
  <path id="Icon_ionic-ios-globe" data-name="Icon ionic-ios-globe" d="M11.373,3.375h-.027a8,8,0,0,0,0,16h.027a8,8,0,1,0,0-16Zm6.929,7.46H15.318a15.143,15.143,0,0,0-.377-2.93A11.714,11.714,0,0,0,16.853,7.1,6.889,6.889,0,0,1,18.3,10.835Zm-7.467,0H8.458A13.668,13.668,0,0,1,8.8,8.178a11.7,11.7,0,0,0,2.038.273Zm0,1.077v2.38a11.748,11.748,0,0,0-2.038.273,13.666,13.666,0,0,1-.338-2.653Zm1.077,0h2.357a13.587,13.587,0,0,1-.338,2.649,11.478,11.478,0,0,0-2.019-.269Zm0-1.077V8.451a11.749,11.749,0,0,0,2.019-.269,13.627,13.627,0,0,1,.338,2.653ZM16.118,6.3a10.682,10.682,0,0,1-1.461.6,7.939,7.939,0,0,0-1.019-2.1A6.958,6.958,0,0,1,16.118,6.3Zm-2.476.873a10.822,10.822,0,0,1-1.73.231V4.582A4.659,4.659,0,0,1,13.642,7.174ZM10.835,4.567V7.4a10.635,10.635,0,0,1-1.75-.235A4.657,4.657,0,0,1,10.835,4.567Zm-1.753.246A8,8,0,0,0,8.07,6.893,10.923,10.923,0,0,1,6.628,6.3,6.854,6.854,0,0,1,9.081,4.813ZM5.894,7.1a11.482,11.482,0,0,0,1.892.8,14.532,14.532,0,0,0-.377,2.93H4.448A6.854,6.854,0,0,1,5.894,7.1Zm-1.45,4.81H7.4a15.1,15.1,0,0,0,.377,2.93,12.183,12.183,0,0,0-1.892.8A6.89,6.89,0,0,1,4.444,11.911Zm2.18,4.534a10.762,10.762,0,0,1,1.446-.592,8.031,8.031,0,0,0,1.011,2.084A7.025,7.025,0,0,1,6.624,16.445Zm2.461-.869a10.691,10.691,0,0,1,1.75-.235v2.838A4.65,4.65,0,0,1,9.085,15.576Zm2.826,2.588V15.338a10.822,10.822,0,0,1,1.73.231A4.657,4.657,0,0,1,11.911,18.164Zm1.73-.219a7.939,7.939,0,0,0,1.019-2.1,10.506,10.506,0,0,1,1.461.6A7.038,7.038,0,0,1,13.642,17.945Zm3.211-2.3a11.714,11.714,0,0,0-1.911-.807,15.064,15.064,0,0,0,.377-2.926H18.3A6.859,6.859,0,0,1,16.853,15.645Z" transform="translate(-3.375 -3.375)" fill="#0081fc"/>
</svg>
